<svg xmlns="http://www.w3.org/2000/svg" xmlns:xlink="http://www.w3.org/1999/xlink" version="1.1" x="0px" y="0px" viewBox="0 0 100 100" fill="#fff" enable-background="new 0 0 100 100" xml:space="preserve"><path d="M62.6,28.8h0.5c1,0,1.9-0.8,1.9-1.9v-6.8c0-1-0.8-1.9-1.9-1.9h-0.5c-1,0-1.9,0.8-1.9,1.9v6.8C60.8,27.9,61.6,28.8,62.6,28.8  z"/><path d="M73.8,33.4c0.7,0.7,1.9,0.7,2.6,0l4.8-4.8c0.7-0.7,0.7-1.9,0-2.6l-0.3-0.3c-0.7-0.7-1.9-0.7-2.6,0l-4.8,4.8  c-0.7,0.7-0.7,1.9,0,2.6L73.8,33.4z"/><path d="M86.7,41.9H80c-1,0-1.9,0.8-1.9,1.9v0.5c0,1,0.8,1.9,1.9,1.9h6.8c1,0,1.9-0.8,1.9-1.9v-0.5C88.6,42.8,87.8,41.9,86.7,41.9z"/><path d="M49.3,33.4c0.7,0.7,1.9,0.7,2.6,0l0.3-0.3c0.7-0.7,0.7-1.9,0-2.6l-4.8-4.8c-0.7-0.7-1.9-0.7-2.6,0L44.5,26  c-0.7,0.7-0.7,1.9,0,2.6L49.3,33.4z"/><path d="M71.4,52.2c-0.4,0-0.8,0-1.1,0.1c2.2-2,3.7-4.9,3.7-8.2c0-6.1-4.9-11-11-11c-5.1,0-9.5,3.5-10.7,8.3c-0.1,0-0.1,0-0.2,0  c-3.9-3.4-8-5-12.8-5c-10.3,0-18.6,7.6-20.3,18.2c-4.5,2.9-7.4,7.7-7.4,12.4c0,8.1,6.6,14.8,14.7,14.8h45.3  c8.4,0,15.4-6.8,15.4-14.8C86.8,58.9,79.8,52.2,71.4,52.2z M16.6,66.9c0-3.1,2.4-6.6,5.8-8.4l1.3-0.7l0.1-1.4  c0.9-8.6,7.4-14.9,15.4-14.9c1.1,0,2.1,0.1,3.1,0.3c1.9,0.4,3.6,1.2,5.3,2.5c0.6,0.5,1.3,1,1.9,1.6l1,1l1.3-0.3c0.1,0,0.2,0,0.3-0.1  c0.8-0.1,2-0.2,2.8-0.2c4.9,0,9,3.6,10,8.5c0,0.3,0.1,0.5,0.2,0.8l0.4,3l2.9-0.8c1-0.3,2.1-0.4,3.1-0.4c0.8,0,1.5,0.1,2.2,0.3  c2.9,0.7,5.4,2.5,6.8,5c0.7,1.3,1.2,2.7,1.2,4.2c0,5-4.8,9.4-10.2,9.4H26.1C20.2,76.4,16.6,71.5,16.6,66.9z"/></svg>
